<?xml version="1.0" encoding="UTF-8" standalone="no"?>
<!-- Created with Inkscape (http://www.inkscape.org/) -->

<svg
   width="768pt"
   height="384pt"
   viewBox="0 0 270.93334 135.46666"
   version="1.1"
   id="svg5"
   inkscape:version="1.1.2 (0a00cf5339, 2022-02-04)"
   sodipodi:docname="prototype.svg"
   xmlns:inkscape="http://www.inkscape.org/namespaces/inkscape"
   xmlns:sodipodi="http://sodipodi.sourceforge.net/DTD/sodipodi-0.dtd"
   xmlns:xlink="http://www.w3.org/1999/xlink"
   xmlns="http://www.w3.org/2000/svg"
   xmlns:svg="http://www.w3.org/2000/svg">
  <sodipodi:namedview
     id="namedview7"
     pagecolor="#505050"
     bordercolor="#ffffff"
     borderopacity="1"
     inkscape:pageshadow="0"
     inkscape:pageopacity="0"
     inkscape:pagecheckerboard="1"
     inkscape:document-units="pt"
     showgrid="false"
     showguides="false"
     units="pt"
     width="100pt"
     inkscape:zoom="2"
     inkscape:cx="314.25"
     inkscape:cy="150.5"
     inkscape:window-width="1920"
     inkscape:window-height="1053"
     inkscape:window-x="0"
     inkscape:window-y="0"
     inkscape:window-maximized="1"
     inkscape:current-layer="layer1"
     inkscape:snap-global="false"
     fit-margin-top="0"
     fit-margin-left="0"
     fit-margin-right="0"
     fit-margin-bottom="0" />
  <defs
     id="defs2">
    <linearGradient
       inkscape:collect="always"
       id="linearGradient104602">
      <stop
         style="stop-color:#ffffff;stop-opacity:1"
         offset="0"
         id="stop104598" />
      <stop
         style="stop-color:#d2d8d8;stop-opacity:1"
         offset="1"
         id="stop104600" />
    </linearGradient>
    <linearGradient
       inkscape:collect="always"
       id="linearGradient99138">
      <stop
         style="stop-color:#000000;stop-opacity:1"
         offset="0"
         id="stop99134" />
      <stop
         style="stop-color:#555555;stop-opacity:0;"
         offset="1"
         id="stop99136" />
    </linearGradient>
    <linearGradient
       inkscape:collect="always"
       id="linearGradient97547">
      <stop
         style="stop-color:#fdfdfd;stop-opacity:1"
         offset="0"
         id="stop97543" />
      <stop
         style="stop-color:#b4b4b8;stop-opacity:1"
         offset="1"
         id="stop97545" />
    </linearGradient>
    <linearGradient
       inkscape:collect="always"
       id="linearGradient42147">
      <stop
         style="stop-color:#cacdcd;stop-opacity:1"
         offset="0"
         id="stop42143" />
      <stop
         style="stop-color:#d2d8d8;stop-opacity:1"
         offset="1"
         id="stop42145" />
    </linearGradient>
    <linearGradient
       inkscape:collect="always"
       id="linearGradient19945">
      <stop
         style="stop-color:#ffffff;stop-opacity:0"
         offset="0"
         id="stop19941" />
      <stop
         style="stop-color:#ffffff;stop-opacity:1"
         offset="1"
         id="stop19943" />
    </linearGradient>
    <linearGradient
       inkscape:collect="always"
       id="linearGradient19029">
      <stop
         style="stop-color:#212121;stop-opacity:0"
         offset="0"
         id="stop19025" />
      <stop
         style="stop-color:#000000;stop-opacity:0.21136326"
         offset="1"
         id="stop19027" />
    </linearGradient>
    <linearGradient
       inkscape:collect="always"
       id="linearGradient67610">
      <stop
         style="stop-color:#ffffff;stop-opacity:1"
         offset="0"
         id="stop67606" />
      <stop
         style="stop-color:#555555;stop-opacity:0;"
         offset="1"
         id="stop67608" />
    </linearGradient>
    <linearGradient
       inkscape:collect="always"
       id="linearGradient55093">
      <stop
         style="stop-color:#000000;stop-opacity:1"
         offset="0"
         id="stop55089" />
      <stop
         style="stop-color:#75757c;stop-opacity:1"
         offset="1"
         id="stop55091" />
    </linearGradient>
    <linearGradient
       inkscape:collect="always"
       xlink:href="#linearGradient97547"
       id="linearGradient55095"
       x1="4.8861308"
       y1="4.7864475"
       x2="23.263716"
       y2="4.7864475"
       gradientUnits="userSpaceOnUse"
       gradientTransform="translate(4.2475527)" />
    <linearGradient
       inkscape:collect="always"
       xlink:href="#linearGradient99138"
       id="linearGradient67612"
       x1="7.9258142"
       y1="4.7864475"
       x2="9.191452"
       y2="4.7864475"
       gradientUnits="userSpaceOnUse" />
    <linearGradient
       inkscape:collect="always"
       xlink:href="#linearGradient67610"
       id="linearGradient1069"
       gradientUnits="userSpaceOnUse"
       x1="7.9258142"
       y1="4.7864475"
       x2="9.191452"
       y2="4.7864475"
       gradientTransform="rotate(180,17.580595,4.7864476)" />
    <linearGradient
       inkscape:collect="always"
       xlink:href="#linearGradient55093"
       id="linearGradient1071"
       gradientUnits="userSpaceOnUse"
       gradientTransform="translate(4.2475527)"
       x1="4.8861308"
       y1="4.7864475"
       x2="23.263716"
       y2="4.7864475" />
    <linearGradient
       inkscape:collect="always"
       xlink:href="#linearGradient67610"
       id="linearGradient13745"
       gradientUnits="userSpaceOnUse"
       x1="7.9258142"
       y1="4.7864475"
       x2="9.191452"
       y2="4.7864475" />
    <linearGradient
       inkscape:collect="always"
       xlink:href="#linearGradient55093"
       id="linearGradient13747"
       gradientUnits="userSpaceOnUse"
       gradientTransform="translate(4.2475527)"
       x1="4.8861308"
       y1="4.7864475"
       x2="23.263716"
       y2="4.7864475" />
    <linearGradient
       inkscape:collect="always"
       xlink:href="#linearGradient19029"
       id="linearGradient19031"
       x1="0.02841777"
       y1="16.684189"
       x2="17.517893"
       y2="16.684189"
       gradientUnits="userSpaceOnUse"
       gradientTransform="translate(-0.43072307,-12.651295)" />
    <linearGradient
       inkscape:collect="always"
       xlink:href="#linearGradient19945"
       id="linearGradient19947"
       x1="-0.69421256"
       y1="20.700029"
       x2="17.948973"
       y2="20.700029"
       gradientUnits="userSpaceOnUse"
       gradientTransform="translate(-0.43072307,-12.651295)" />
    <linearGradient
       inkscape:collect="always"
       xlink:href="#linearGradient19029"
       id="linearGradient37664"
       gradientUnits="userSpaceOnUse"
       gradientTransform="translate(-38.427371,-2.1061453)"
       x1="0.02841777"
       y1="16.684189"
       x2="17.517893"
       y2="16.684189" />
    <linearGradient
       inkscape:collect="always"
       xlink:href="#linearGradient19945"
       id="linearGradient37666"
       gradientUnits="userSpaceOnUse"
       gradientTransform="translate(-38.427371,-2.1061453)"
       x1="-0.69421256"
       y1="20.700029"
       x2="17.948973"
       y2="20.700029" />
    <radialGradient
       inkscape:collect="always"
       xlink:href="#linearGradient42147"
       id="radialGradient42149"
       cx="17.638889"
       cy="0.88194448"
       fx="17.638889"
       fy="0.88194448"
       r="17.638889"
       gradientTransform="matrix(0.86279786,0,0,0.20687011,20.058982,0.69949652)"
       gradientUnits="userSpaceOnUse" />
    <linearGradient
       inkscape:collect="always"
       xlink:href="#linearGradient19029"
       id="linearGradient68792"
       gradientUnits="userSpaceOnUse"
       gradientTransform="translate(-3.3677514,5.4474712)"
       x1="0.02841777"
       y1="16.684189"
       x2="17.517893"
       y2="16.684189" />
    <linearGradient
       inkscape:collect="always"
       xlink:href="#linearGradient19945"
       id="linearGradient68794"
       gradientUnits="userSpaceOnUse"
       gradientTransform="translate(-3.3677514,5.4474712)"
       x1="-0.69421256"
       y1="20.700029"
       x2="17.948973"
       y2="20.700029" />
    <radialGradient
       inkscape:collect="always"
       xlink:href="#linearGradient104602"
       id="radialGradient104604"
       cx="17.638889"
       cy="17.638889"
       fx="17.638889"
       fy="17.638889"
       r="17.638889"
       gradientUnits="userSpaceOnUse"
       gradientTransform="scale(2,1)" />
  </defs>
  <g
     inkscape:label="Layer 1"
     inkscape:groupmode="layer"
     id="layer1">
    <g
       id="g107159"
       transform="scale(3.84)">
      <rect
         style="fill:url(#radialGradient104604);fill-opacity:1;stroke:none;stroke-width:1.35421;stroke-linejoin:bevel;stroke-opacity:0.649155"
         id="rect957"
         width="70.555557"
         height="35.277779"
         x="0"
         y="0" />
      <rect
         style="fill:url(#radialGradient42149);fill-opacity:1;stroke:none;stroke-width:0.30281;stroke-linejoin:bevel;stroke-opacity:0.649155"
         id="rect2083"
         width="70.555557"
         height="1.763889"
         x="0"
         y="0" />
      <rect
         style="fill:#ffffff;fill-opacity:1;stroke:none;stroke-width:0.0478785;stroke-linejoin:bevel;stroke-opacity:0.649155"
         id="rect88621"
         width="1.763889"
         height="1.763889"
         x="0"
         y="0" />
      <text
         xml:space="preserve"
         style="font-style:normal;font-weight:normal;font-size:1.41111px;line-height:1.25;font-family:sans-serif;fill:#858585;fill-opacity:1;stroke:none;stroke-width:0.264583"
         x="0.89317244"
         y="1.2373922"
         id="text82855"><tspan
           sodipodi:role="line"
           id="tspan82853"
           style="font-style:normal;font-variant:normal;font-weight:normal;font-stretch:normal;font-size:1.41111px;font-family:FreeMono;-inkscape-font-specification:FreeMono;fill:#858585;fill-opacity:1;stroke-width:0.264583"
           x="0.89317244"
           y="1.2373922">signachurn</tspan></text>
      <g
         id="g106598"
         transform="translate(11.28342,2.5523718)">
        <rect
           style="fill:url(#linearGradient19031);fill-opacity:1;stroke:url(#linearGradient19947);stroke-width:0.0352778;stroke-linejoin:bevel;stroke-miterlimit:4;stroke-dasharray:none;stroke-opacity:1"
           id="rect18473"
           width="18.607908"
           height="9.5423117"
           x="-1.1072968"
           y="3.2775779"
           ry="1.1964387" />
        <text
           xml:space="preserve"
           style="font-style:normal;font-weight:normal;font-size:1.05833px;line-height:1.25;font-family:sans-serif;fill:#424242;fill-opacity:1;stroke:none;stroke-width:0.0176389;stroke-miterlimit:4;stroke-dasharray:none;stroke-opacity:1"
           x="0.88810647"
           y="6.0562396"
           id="text12204-2"><tspan
             sodipodi:role="line"
             style="font-style:normal;font-variant:normal;font-weight:normal;font-stretch:normal;font-size:1.05833px;font-family:FreeMono;-inkscape-font-specification:FreeMono;fill:#424242;fill-opacity:1;stroke:none;stroke-width:0.0176389;stroke-miterlimit:4;stroke-dasharray:none;stroke-opacity:1"
             x="0.88810647"
             y="6.0562396"
             id="tspan22163">analyse your dependencies</tspan></text>
      </g>
      <g
         id="g106275"
         transform="translate(24.66355,0.936905)">
        <rect
           style="fill:url(#linearGradient37664);fill-opacity:1;stroke:url(#linearGradient37666);stroke-width:0.0352778;stroke-linejoin:bevel;stroke-miterlimit:4;stroke-dasharray:none;stroke-opacity:1"
           id="rect37662"
           width="18.607908"
           height="9.5423117"
           x="-39.103943"
           y="13.822728"
           ry="1.1964387"
           transform="scale(-1,1)" />
        <rect
           style="fill:#626262;fill-opacity:1;stroke:#000000;stroke-width:0.0398166;stroke-linejoin:bevel;stroke-miterlimit:4;stroke-dasharray:none;stroke-opacity:0"
           id="rect26493-0-3"
           width="2.3417807"
           height="1.8508388"
           x="29.616022"
           y="20.657509" />
        <rect
           style="fill:#626262;fill-opacity:1;stroke:#000000;stroke-width:0.0352777;stroke-linejoin:bevel;stroke-miterlimit:4;stroke-dasharray:none;stroke-opacity:0"
           id="rect26493-0-6"
           width="2.3463197"
           height="1.4501053"
           x="24.043261"
           y="21.060513" />
        <rect
           style="fill:#868686;fill-opacity:1;stroke:#000000;stroke-width:0.0442888;stroke-linejoin:bevel;stroke-miterlimit:4;stroke-dasharray:none;stroke-opacity:0"
           id="rect26493-0-9"
           width="2.3373086"
           height="2.2943368"
           x="26.782045"
           y="20.211775" />
        <text
           xml:space="preserve"
           style="font-style:normal;font-weight:normal;font-size:1.05833px;line-height:1.25;font-family:sans-serif;fill:#424242;fill-opacity:1;stroke:none;stroke-width:0.264583"
           x="22.754538"
           y="15.811759"
           id="text1065-0"><tspan
             sodipodi:role="line"
             id="tspan1063-6"
             style="font-style:normal;font-variant:normal;font-weight:normal;font-stretch:normal;font-size:1.05833px;font-family:FreeMono;-inkscape-font-specification:FreeMono;fill:#424242;fill-opacity:1;stroke-width:0.264583"
             x="22.754538"
             y="15.811759">Compare Libraries</tspan></text>
      </g>
      <g
         id="g106603"
         transform="translate(13.235062,3.8422605)">
        <rect
           style="fill:url(#linearGradient68792);fill-opacity:1;stroke:url(#linearGradient68794);stroke-width:0.0352778;stroke-linejoin:bevel;stroke-miterlimit:4;stroke-dasharray:none;stroke-opacity:1"
           id="rect37662-7"
           width="18.607908"
           height="9.5423117"
           x="-4.0443254"
           y="21.376345"
           ry="1.1964387" />
        <text
           xml:space="preserve"
           style="font-style:normal;font-weight:normal;font-size:1.05833px;line-height:1.25;font-family:sans-serif;fill:#424242;fill-opacity:1;stroke:none;stroke-width:0.264583"
           x="0.51067561"
           y="23.415482"
           id="text1065-0-9"><tspan
             sodipodi:role="line"
             id="tspan1063-6-2"
             style="font-style:normal;font-variant:normal;font-weight:normal;font-stretch:normal;font-size:1.05833px;font-family:FreeMono;-inkscape-font-specification:FreeMono;fill:#424242;fill-opacity:1;stroke-width:0.264583"
             x="0.51067561"
             y="23.415482">Predict Upgrade Paths</tspan></text>
      </g>
      <g
         id="g1053"
         transform="translate(9.1109247,7.1225458)">
        <rect
           style="fill:#ffffff;fill-opacity:1;stroke:#ffffff;stroke-width:0.0179763;stroke-linejoin:bevel;stroke-miterlimit:4;stroke-dasharray:none;stroke-opacity:1"
           id="rect57638"
           width="19.794434"
           height="2.6056452"
           x="7.7416716"
           y="3.4836254"
           ry="0.54489261" />
        <path
           id="path38196"
           style="color:#000000;fill:url(#linearGradient67612);fill-opacity:1;stroke-width:0.550463;stroke-linejoin:bevel;-inkscape-stroke:none"
           d="m 8.9385799,3.7736816 c -0.5592359,0 -1.0127658,0.45353 -1.0127658,1.0127658 0,0.5592361 0.4535299,1.0127661 1.0127658,1.0127661 0.5592359,0 1.0138405,-0.4535302 1.0138405,-1.0127661 0,-0.5592358 -0.4546046,-1.0127658 -1.0138405,-1.0127658 z m 0,0.04838 c 0.5329987,0 0.9643845,0.4313866 0.9643845,0.9643853 0,0.5329988 -0.4313858,0.9643853 -0.9643845,0.9643853 -0.5329986,0 -0.9643852,-0.4313865 -0.9643852,-0.9643853 0,-0.5329987 0.4313866,-0.9643853 0.9643852,-0.9643853 z M 8.0363617,4.7865517 c 0,-0.3037568 0.2017642,0.038528 0.3180069,-0.242107 0.1162434,-0.2806344 -0.268458,-0.181271 -0.053668,-0.39606 0.2147887,-0.2147884 0.1154249,0.1699131 0.3960606,0.053669 0.2806347,-0.1162435 -0.06165,-0.3180071 0.2421068,-0.3180071 0.3037569,0 -0.038529,0.2017644 0.2421068,0.3180071 0.2806349,0.1162433 0.181271,-0.268458 0.3960607,-0.053669 0.2147879,0.2147889 -0.1699131,0.1154249 -0.053669,0.3960605 0.1162434,0.280635 0.3180069,-0.06165 0.3180069,0.242107 0,0.3037571 -0.2017642,-0.038528 -0.3180069,0.242107 -0.1162438,0.2806337 0.2684569,0.181271 0.053668,0.3960596 -0.2147891,0.2147887 -0.1154253,-0.1699113 -0.396061,-0.053669 -0.2806347,0.1162433 0.06165,0.3180068 -0.2421069,0.3180068 -0.3037569,0 0.038528,-0.2017642 -0.242107,-0.3180068 C 8.4161248,5.2548073 8.5154877,5.6395082 8.3006994,5.4247196 8.0859106,5.2099309 8.4706115,5.309294 8.3543686,5.0286591 8.2381259,4.7480243 8.0363617,5.0903091 8.0363617,4.7865517 Z" />
        <path
           id="rect957-3"
           style="fill:url(#linearGradient55095);stroke:none;stroke-width:0.0176389;stroke-linejoin:bevel"
           d="M 9.1961714,3.5277779 H 27.030128 c 0.261665,0 0.47232,0.2106547 0.47232,0.47232 v 1.5726995 c 0,0.2616653 -0.210655,0.47232 -0.47232,0.47232 H 9.1961714 Z"
           sodipodi:nodetypes="csssscc" />
        <rect
           style="fill:#ebebeb;fill-opacity:1;stroke:#353535;stroke-width:0.0176389;stroke-linejoin:bevel;stroke-miterlimit:4;stroke-dasharray:none;stroke-opacity:1"
           id="rect75682"
           width="10.620212"
           height="1.6081815"
           x="15.627166"
           y="4.0382085"
           ry="0.19974333" />
        <text
           xml:space="preserve"
           style="font-style:normal;font-weight:normal;font-size:1.05833px;line-height:1.25;font-family:sans-serif;fill:#7e7e7e;fill-opacity:1;stroke:none;stroke-width:0.264583"
           x="10.003663"
           y="5.0559502"
           id="text12204"><tspan
             sodipodi:role="line"
             id="tspan12202"
             style="font-style:normal;font-variant:normal;font-weight:normal;font-stretch:normal;font-size:1.05833px;font-family:FreeMono;-inkscape-font-specification:FreeMono;fill:#7e7e7e;fill-opacity:1;stroke-width:0.264583"
             x="10.003663"
             y="5.0559502">Git URL</tspan></text>
      </g>
      <g
         id="g1067"
         transform="translate(19.072832,17.323524)">
        <rect
           style="fill:#000000;fill-opacity:1;stroke:#ffffff;stroke-width:0.0185516;stroke-linejoin:bevel;stroke-miterlimit:4;stroke-dasharray:none;stroke-opacity:1"
           id="rect1055"
           width="20.031542"
           height="2.7422664"
           x="7.6231179"
           y="3.4153147"
           ry="0.51452214" />
        <path
           id="path1059"
           style="fill:url(#linearGradient1071);stroke:none;stroke-width:0.0176389;stroke-linejoin:bevel"
           d="M 9.1961714,3.5277779 H 27.030128 c 0.261665,0 0.47232,0.2106547 0.47232,0.47232 v 1.5726995 c 0,0.2616653 -0.210655,0.47232 -0.47232,0.47232 H 9.1961714 Z"
           sodipodi:nodetypes="csssscc" />
        <path
           id="path1057"
           style="color:#000000;fill:url(#linearGradient1069);fill-opacity:1;stroke-width:0.550463;stroke-linejoin:bevel;-inkscape-stroke:none"
           d="m 26.22261,5.7992135 c 0.559236,0 1.012766,-0.45353 1.012766,-1.0127658 0,-0.5592361 -0.45353,-1.0127661 -1.012766,-1.0127661 -0.559236,0 -1.01384,0.4535302 -1.01384,1.0127661 0,0.5592358 0.454604,1.0127658 1.01384,1.0127658 z m 0,-0.04838 c -0.532998,0 -0.964384,-0.4313866 -0.964384,-0.9643853 0,-0.5329988 0.431386,-0.9643853 0.964384,-0.9643853 0.532999,0 0.964385,0.4313865 0.964385,0.9643853 0,0.5329987 -0.431386,0.9643853 -0.964385,0.9643853 z m 0.902218,-0.9644901 c 0,0.3037568 -0.201764,-0.038528 -0.318006,0.242107 -0.116244,0.2806344 0.268458,0.181271 0.05367,0.39606 -0.214789,0.2147884 -0.115425,-0.1699131 -0.396061,-0.053669 -0.280635,0.1162435 0.06165,0.3180071 -0.242107,0.3180071 -0.303757,0 0.03853,-0.2017644 -0.242107,-0.3180071 -0.280635,-0.1162433 -0.181271,0.268458 -0.39606,0.053669 -0.214788,-0.2147889 0.169913,-0.1154249 0.05367,-0.3960605 -0.116244,-0.280635 -0.318007,0.06165 -0.318007,-0.242107 0,-0.3037571 0.201764,0.038528 0.318007,-0.242107 0.116243,-0.2806337 -0.268457,-0.181271 -0.05367,-0.3960596 0.214789,-0.2147887 0.115425,0.1699113 0.396061,0.053669 0.280634,-0.1162433 -0.06165,-0.3180068 0.242107,-0.3180068 0.303756,0 -0.03853,0.2017642 0.242107,0.3180068 0.280634,0.1162425 0.181271,-0.2684584 0.39606,-0.05367 0.214789,0.2147887 -0.169912,0.1154256 -0.05367,0.3960605 0.116242,0.2806348 0.318006,-0.06165 0.318006,0.2421076 z" />
        <text
           xml:space="preserve"
           style="font-style:normal;font-weight:normal;font-size:1.05833px;line-height:1.25;font-family:sans-serif;fill:#000000;fill-opacity:1;stroke:none;stroke-width:0.264583"
           x="11.864954"
           y="5.0182219"
           id="text1065"><tspan
             sodipodi:role="line"
             id="tspan1063"
             style="font-style:normal;font-variant:normal;font-weight:normal;font-stretch:normal;font-size:1.05833px;font-family:FreeMono;-inkscape-font-specification:FreeMono;fill:#cbcbcb;fill-opacity:1;stroke-width:0.264583"
             x="11.864954"
             y="5.0182219">Rank API Stability</tspan></text>
      </g>
      <g
         id="g13743"
         transform="translate(10.779628,28.990262)">
        <rect
           style="fill:#000000;fill-opacity:1;stroke:#ffffff;stroke-width:0.0185516;stroke-linejoin:bevel;stroke-miterlimit:4;stroke-dasharray:none;stroke-opacity:1"
           id="rect13731"
           width="20.031542"
           height="2.7422664"
           x="7.6231179"
           y="3.4153147"
           ry="0.51452214" />
        <path
           id="path13733"
           style="color:#000000;fill:url(#linearGradient13745);fill-opacity:1;stroke-width:0.550463;stroke-linejoin:bevel;-inkscape-stroke:none"
           d="m 8.9385799,3.7736816 c -0.5592359,0 -1.0127658,0.45353 -1.0127658,1.0127658 0,0.5592361 0.4535299,1.0127661 1.0127658,1.0127661 0.5592359,0 1.0138405,-0.4535302 1.0138405,-1.0127661 0,-0.5592358 -0.4546046,-1.0127658 -1.0138405,-1.0127658 z m 0,0.04838 c 0.5329987,0 0.9643845,0.4313866 0.9643845,0.9643853 0,0.5329988 -0.4313858,0.9643853 -0.9643845,0.9643853 -0.5329986,0 -0.9643852,-0.4313865 -0.9643852,-0.9643853 0,-0.5329987 0.4313866,-0.9643853 0.9643852,-0.9643853 z M 8.0363617,4.7865517 c 0,-0.3037568 0.2017642,0.038528 0.3180069,-0.242107 0.1162434,-0.2806344 -0.268458,-0.181271 -0.053668,-0.39606 0.2147887,-0.2147884 0.1154249,0.1699131 0.3960606,0.053669 0.2806347,-0.1162435 -0.06165,-0.3180071 0.2421068,-0.3180071 0.3037569,0 -0.038529,0.2017644 0.2421068,0.3180071 0.2806349,0.1162433 0.181271,-0.268458 0.3960607,-0.053669 0.2147879,0.2147889 -0.1699131,0.1154249 -0.053669,0.3960605 0.1162434,0.280635 0.3180069,-0.06165 0.3180069,0.242107 0,0.3037571 -0.2017642,-0.038528 -0.3180069,0.242107 -0.1162438,0.2806337 0.2684569,0.181271 0.053668,0.3960596 -0.2147891,0.2147887 -0.1154253,-0.1699113 -0.396061,-0.053669 -0.2806347,0.1162433 0.06165,0.3180068 -0.2421069,0.3180068 -0.3037569,0 0.038528,-0.2017642 -0.242107,-0.3180068 C 8.4161248,5.2548073 8.5154877,5.6395082 8.3006994,5.4247196 8.0859106,5.2099309 8.4706115,5.309294 8.3543686,5.0286591 8.2381259,4.7480243 8.0363617,5.0903091 8.0363617,4.7865517 Z" />
        <path
           id="path13735"
           style="fill:url(#linearGradient13747);stroke:none;stroke-width:0.0176389;stroke-linejoin:bevel"
           d="M 9.1961714,3.5277779 H 27.030128 c 0.261665,0 0.47232,0.2106547 0.47232,0.47232 v 1.5726995 c 0,0.2616653 -0.210655,0.47232 -0.47232,0.47232 H 9.1961714 Z"
           sodipodi:nodetypes="csssscc" />
        <rect
           style="fill:#252525;fill-opacity:1;stroke:none;stroke-width:0.020619;stroke-linejoin:bevel;stroke-miterlimit:4;stroke-dasharray:none;stroke-opacity:1"
           id="rect13737"
           width="0.74498165"
           height="1.6081817"
           x="10.39124"
           y="3.894238"
           ry="0.19974333" />
        <text
           xml:space="preserve"
           style="font-style:normal;font-weight:normal;font-size:1.05833px;line-height:1.25;font-family:sans-serif;fill:#000000;fill-opacity:1;stroke:none;stroke-width:0.264583"
           x="10.480155"
           y="5.0182219"
           id="text13741"><tspan
             sodipodi:role="line"
             id="tspan13739"
             style="font-style:normal;font-variant:normal;font-weight:normal;font-stretch:normal;font-size:1.05833px;font-family:FreeMono;-inkscape-font-specification:FreeMono;fill:#cbcbcb;fill-opacity:1;stroke-width:0.264583"
             x="10.480155"
             y="5.0182219">Graph Maintainability</tspan></text>
      </g>
    </g>
  </g>
</svg>
